<svg width="128" height="128" viewBox="0 0 128 128" fill="none" xmlns="http://www.w3.org/2000/svg">
<path d="M74.1367 2.52344C77.1836 2.52344 79.8398 3.1875 82.1055 4.51562C84.3711 5.84375 86.2852 7.60156 87.8477 9.78906C89.4102 11.8984 90.6602 14.2813 91.5977 16.9375C92.5352 19.5937 93.2383 22.2891 93.707 25.0234C94.1758 27.6797 94.4492 30.2188 94.5273 32.6406C94.6836 35.0625 94.7227 37.0547 94.6445 38.6172C94.2539 44.7109 93.3555 50.5703 91.9492 56.1953C90.6211 61.8203 88.9414 67.1328 86.9102 72.1328C84.8789 77.0547 82.5742 81.625 79.9961 85.8438C77.418 89.9844 74.7227 93.6953 71.9102 96.9766C72.3008 97.3672 72.6914 97.7969 73.082 98.2656C73.5508 98.7344 73.9805 99.1641 74.3711 99.5547C76.5586 101.742 78.7852 103.578 81.0508 105.062C83.0039 106.391 85.1523 107.484 87.4961 108.344C89.8398 109.281 92.0664 109.438 94.1758 108.812C94.2539 109.906 93.9023 110.727 93.1211 111.273C92.418 111.898 91.6367 112.367 90.7773 112.68C89.7617 112.992 88.5508 113.188 87.1445 113.266C85.3477 113.266 83.4336 112.875 81.4023 112.094C79.4492 111.391 77.5352 110.492 75.6602 109.398C73.8633 108.383 72.1445 107.25 70.5039 106C68.8633 104.75 67.4961 103.656 66.4023 102.719C62.8867 106.156 59.4102 108.734 55.9727 110.453C52.6133 112.172 49.4883 113.031 46.5977 113.031C41.832 113.031 38.4336 111.977 36.4023 109.867C34.3711 107.836 33.4727 105.297 33.707 102.25C33.7852 100.766 34.2539 99.2031 35.1133 97.5625C35.9727 95.9219 37.1445 94.3984 38.6289 92.9922C40.1914 91.6641 42.0273 90.5703 44.1367 89.7109C46.2461 88.8516 48.668 88.4219 51.4023 88.4219C54.0586 88.4219 56.4023 88.6562 58.4336 89.125C60.543 89.5938 62.6133 90.375 64.6445 91.4688C67.1445 87.9531 69.5273 84.0078 71.793 79.6328C74.0586 75.1797 76.0508 70.5703 77.7695 65.8047C79.5664 61.0391 81.0508 56.2344 82.2227 51.3906C83.3945 46.5469 84.1367 41.9375 84.4492 37.5625C84.7617 31.9375 84.6055 27.3281 83.9805 23.7344C83.3555 20.0625 82.457 17.1719 81.2852 15.0625C80.1133 12.875 78.8242 11.3516 77.418 10.4922C76.0117 9.63281 74.7227 9.20312 73.5508 9.20312C70.8945 9.20312 67.9258 10.5313 64.6445 13.1875C61.4414 15.7656 58.3555 19.3984 55.3867 24.0859C52.418 28.7734 49.8398 34.3203 47.6523 40.7266C45.4648 47.1328 44.0977 54.125 43.5508 61.7031C43.4727 64.9844 43.7852 67.9141 44.4883 70.4922C44.8008 71.5859 45.1914 72.6797 45.6602 73.7734C46.207 74.7891 46.8711 75.7266 47.6523 76.5859C48.4336 77.3672 49.3711 77.9922 50.4648 78.4609C51.5586 78.9297 52.8477 79.125 54.332 79.0469C54.1758 80.375 53.668 81.3906 52.8086 82.0938C51.9492 82.7969 51.0508 83.3047 50.1133 83.6172C49.0195 84.0078 47.7695 84.2031 46.3633 84.2031C45.1914 84.2031 43.7461 83.7344 42.0273 82.7969C40.3086 81.7812 38.6289 80.2188 36.9883 78.1094C35.4258 76 34.1367 73.3047 33.1211 70.0234C32.1055 66.6641 31.793 62.6406 32.1836 57.9531C32.418 54.8281 32.9648 51.3125 33.8242 47.4062C34.7617 43.4219 36.0508 39.3984 37.6914 35.3359C39.332 31.1953 41.2852 27.1719 43.5508 23.2656C45.8945 19.3594 48.5898 15.8828 51.6367 12.8359C54.6836 9.71094 58.082 7.21094 61.832 5.33594C65.582 3.46094 69.6836 2.52344 74.1367 2.52344ZM46.832 104.945C48.8633 104.945 50.9727 104.242 53.1602 102.836C55.4258 101.508 57.6523 99.6719 59.8398 97.3281C57.9648 96.0781 55.9727 95.4531 53.8633 95.4531C52.3789 95.4531 51.0117 95.6484 49.7617 96.0391C48.5898 96.5078 47.5742 97.0938 46.7148 97.7969C45.8555 98.5 45.1523 99.2422 44.6055 100.023C44.1367 100.883 43.9023 101.703 43.9023 102.484C43.8242 103.188 44.0195 103.773 44.4883 104.242C44.957 104.711 45.7383 104.945 46.832 104.945Z" fill="#0066FF"/>
<path d="M74.1367 2.52344C77.1836 2.52344 79.8398 3.1875 82.1055 4.51562C84.3711 5.84375 86.2852 7.60156 87.8477 9.78906C89.4102 11.8984 90.6602 14.2813 91.5977 16.9375C92.5352 19.5937 93.2383 22.2891 93.707 25.0234C94.1758 27.6797 94.4492 30.2188 94.5273 32.6406C94.6836 35.0625 94.7227 37.0547 94.6445 38.6172C94.2539 44.7109 93.3555 50.5703 91.9492 56.1953C90.6211 61.8203 88.9414 67.1328 86.9102 72.1328C84.8789 77.0547 82.5742 81.625 79.9961 85.8438C77.418 89.9844 74.7227 93.6953 71.9102 96.9766C72.3008 97.3672 72.6914 97.7969 73.082 98.2656C73.5508 98.7344 73.9805 99.1641 74.3711 99.5547C76.5586 101.742 78.7852 103.578 81.0508 105.062C83.0039 106.391 85.1523 107.484 87.4961 108.344C89.8398 109.281 92.0664 109.438 94.1758 108.812C94.2539 109.906 93.9023 110.727 93.1211 111.273C92.418 111.898 91.6367 112.367 90.7773 112.68C89.7617 112.992 88.5508 113.188 87.1445 113.266C85.3477 113.266 83.4336 112.875 81.4023 112.094C79.4492 111.391 77.5352 110.492 75.6602 109.398C73.8633 108.383 72.1445 107.25 70.5039 106C68.8633 104.75 67.4961 103.656 66.4023 102.719C62.8867 106.156 59.4102 108.734 55.9727 110.453C52.6133 112.172 49.4883 113.031 46.5977 113.031C41.832 113.031 38.4336 111.977 36.4023 109.867C34.3711 107.836 33.4727 105.297 33.707 102.25C33.7852 100.766 34.2539 99.2031 35.1133 97.5625C35.9727 95.9219 37.1445 94.3984 38.6289 92.9922C40.1914 91.6641 42.0273 90.5703 44.1367 89.7109C46.2461 88.8516 48.668 88.4219 51.4023 88.4219C54.0586 88.4219 56.4023 88.6562 58.4336 89.125C60.543 89.5938 62.6133 90.375 64.6445 91.4688C67.1445 87.9531 69.5273 84.0078 71.793 79.6328C74.0586 75.1797 76.0508 70.5703 77.7695 65.8047C79.5664 61.0391 81.0508 56.2344 82.2227 51.3906C83.3945 46.5469 84.1367 41.9375 84.4492 37.5625C84.7617 31.9375 84.6055 27.3281 83.9805 23.7344C83.3555 20.0625 82.457 17.1719 81.2852 15.0625C80.1133 12.875 78.8242 11.3516 77.418 10.4922C76.0117 9.63281 74.7227 9.20312 73.5508 9.20312C70.8945 9.20312 67.9258 10.5313 64.6445 13.1875C61.4414 15.7656 58.3555 19.3984 55.3867 24.0859C52.418 28.7734 49.8398 34.3203 47.6523 40.7266C45.4648 47.1328 44.0977 54.125 43.5508 61.7031C43.4727 64.9844 43.7852 67.9141 44.4883 70.4922C44.8008 71.5859 45.1914 72.6797 45.6602 73.7734C46.207 74.7891 46.8711 75.7266 47.6523 76.5859C48.4336 77.3672 49.3711 77.9922 50.4648 78.4609C51.5586 78.9297 52.8477 79.125 54.332 79.0469C54.1758 80.375 53.668 81.3906 52.8086 82.0938C51.9492 82.7969 51.0508 83.3047 50.1133 83.6172C49.0195 84.0078 47.7695 84.2031 46.3633 84.2031C45.1914 84.2031 43.7461 83.7344 42.0273 82.7969C40.3086 81.7812 38.6289 80.2188 36.9883 78.1094C35.4258 76 34.1367 73.3047 33.1211 70.0234C32.1055 66.6641 31.793 62.6406 32.1836 57.9531C32.418 54.8281 32.9648 51.3125 33.8242 47.4062C34.7617 43.4219 36.0508 39.3984 37.6914 35.3359C39.332 31.1953 41.2852 27.1719 43.5508 23.2656C45.8945 19.3594 48.5898 15.8828 51.6367 12.8359C54.6836 9.71094 58.082 7.21094 61.832 5.33594C65.582 3.46094 69.6836 2.52344 74.1367 2.52344ZM46.832 104.945C48.8633 104.945 50.9727 104.242 53.1602 102.836C55.4258 101.508 57.6523 99.6719 59.8398 97.3281C57.9648 96.0781 55.9727 95.4531 53.8633 95.4531C52.3789 95.4531 51.0117 95.6484 49.7617 96.0391C48.5898 96.5078 47.5742 97.0938 46.7148 97.7969C45.8555 98.5 45.1523 99.2422 44.6055 100.023C44.1367 100.883 43.9023 101.703 43.9023 102.484C43.8242 103.188 44.0195 103.773 44.4883 104.242C44.957 104.711 45.7383 104.945 46.832 104.945Z" fill="url(#paint0_linear)"/>
<defs>
<linearGradient id="paint0_linear" x1="64" y1="0" x2="64" y2="128" gradientUnits="userSpaceOnUse">
<stop stop-color="#0EFFF1"/>
<stop offset="1" stop-color="#00FFFF" stop-opacity="0"/>
</linearGradient>
</defs>
</svg>
